<?xml version="1.0" encoding="utf-8"?>
<!-- Generator: Adobe Illustrator 19.2.1, SVG Export Plug-In . SVG Version: 6.00 Build 0)  -->
<svg version="1.1" id="レイヤー_1" xmlns="http://www.w3.org/2000/svg" xmlns:xlink="http://www.w3.org/1999/xlink" x="0px"
	 y="0px" viewBox="0 0 150 43.6" style="enable-background:new 0 0 150 43.6;" xml:space="preserve">
<style type="text/css">
	.st0{fill:#FFFFFF;}
</style>
<g>
	<g>
		<path class="st0" d="M43.6,35.8c0,4.3-3.5,7.9-7.9,7.9c-4.4,0-7.9-3.5-7.9-7.9c0-4.4,3.5-7.9,7.9-7.9
			C40.1,27.9,43.6,31.4,43.6,35.8z"/>
		<path class="st0" d="M63,11.2h10v14c0,8-6.5,14.5-14.5,14.5c-8,0-14.5-6.5-14.5-14.5v-14h10v14c0,2.7,1.8,4.8,4.5,4.8
			c2.7,0,4.5-2.2,4.5-4.8V11.2z"/>
		<rect x="77" y="11.2" class="st0" width="9" height="28"/>
		<path class="st0" d="M104,20.3c1.8,0,3.4,1,4.2,2.4l8.4-4.9c-2.5-4.3-7.2-7.3-12.6-7.3c-8,0-14.5,6.5-14.5,14.5
			c0,8,6.5,14.5,14.5,14.5c5.4,0,10.1-2.9,12.6-7.3l-8.4-4.8c-0.8,1.4-2.4,2.4-4.2,2.4c-2.7,0-4.9-2.2-4.9-4.8
			C99.1,22.5,101.3,20.3,104,20.3z"/>
		<polygon class="st0" points="150,39.2 135.5,25.2 149,11.2 136.4,11.2 128,19.5 128,0.2 119,0.2 119,39.2 128,39.2 128,30.8 
			136.4,39.2 		"/>
		<path class="st0" d="M25.1,35.7c0-5.9,4.7-10.6,10.6-10.6c1.1,0,2.1,0.2,3.1,0.5c0.6-1.8,0.8-3.7,0.8-5.7C39.7,8.9,30.8,0,19.8,0
			C8.9,0,0,8.9,0,19.8c0,11,8.9,19.9,19.8,19.9c2,0,3.9-0.3,5.7-0.9C25.3,37.9,25.1,36.8,25.1,35.7z M10.2,19.8
			c0-5.3,4.3-9.6,9.6-9.6c5.3,0,9.6,4.3,9.6,9.6s-4.3,9.6-9.6,9.6C14.5,29.5,10.2,25.2,10.2,19.8z"/>
	</g>
</g>
</svg>
